<svg xmlns="http://www.w3.org/2000/svg" width="18.464" height="9.812" viewBox="0 0 18.464 9.812"><g transform="translate(0 -119.96)"><g transform="translate(0 124.578)"><path d="M2.6,253.2a2.6,2.6,0,1,1,2.6-2.6A2.6,2.6,0,0,1,2.6,253.2Zm0-4.617a2.02,2.02,0,1,0,2.019,2.02A2.022,2.022,0,0,0,2.6,248.585Z" transform="translate(0 -248.008)" fill="#fff"/></g><g transform="translate(1.731 126.309)"><path d="M48.865,297.756a.866.866,0,1,1,.865-.866A.867.867,0,0,1,48.865,297.756Zm0-1.155a.289.289,0,1,0,.288.289A.289.289,0,0,0,48.865,296.6Z" transform="translate(-48 -296.024)" fill="#fff"/></g><g transform="translate(0.865 125.443)"><path d="M25.731,275.479a1.731,1.731,0,1,1,1.731-1.731A1.733,1.733,0,0,1,25.731,275.479Zm0-2.886a1.154,1.154,0,1,0,1.154,1.155A1.155,1.155,0,0,0,25.731,272.593Z" transform="translate(-24 -272.016)" fill="#fff"/></g><g transform="translate(4.616 124.578)"><path d="M130.6,253.2a2.6,2.6,0,1,1,2.6-2.6A2.6,2.6,0,0,1,130.6,253.2Zm0-4.617a2.02,2.02,0,1,0,2.019,2.02A2.022,2.022,0,0,0,130.6,248.585Z" transform="translate(-128 -248.008)" fill="#fff"/></g><g transform="translate(15.579 124.578)"><path d="M432.288,253.2a.289.289,0,0,1,0-.577,2.02,2.02,0,0,0,0-4.04.289.289,0,0,1,0-.577,2.6,2.6,0,0,1,0,5.194Z" transform="translate(-432 -248.008)" fill="#fff"/></g><g transform="translate(2.308 119.96)"><path d="M66.6,125.154a2.6,2.6,0,1,1,2.6-2.6A2.6,2.6,0,0,1,66.6,125.154Zm0-4.617a2.02,2.02,0,1,0,2.019,2.02A2.022,2.022,0,0,0,66.6,120.537Z" transform="translate(-64 -119.96)" fill="#fff"/></g><g transform="translate(13.271 119.96)"><path d="M368.288,125.154a.288.288,0,0,1,0-.577,2.02,2.02,0,0,0,0-4.04.288.288,0,0,1,0-.577,2.6,2.6,0,0,1,0,5.194Z" transform="translate(-368 -119.96)" fill="#fff"/></g><g transform="translate(6.347 126.309)"><path d="M176.865,297.756a.866.866,0,1,1,.865-.866A.867.867,0,0,1,176.865,297.756Zm0-1.155a.289.289,0,1,0,.288.289A.289.289,0,0,0,176.865,296.6Z" transform="translate(-176 -296.024)" fill="#fff"/></g><g transform="translate(5.481 125.443)"><path d="M153.731,275.479a1.731,1.731,0,1,1,1.731-1.731A1.733,1.733,0,0,1,153.731,275.479Zm0-2.886a1.154,1.154,0,1,0,1.154,1.155A1.155,1.155,0,0,0,153.731,272.593Z" transform="translate(-152 -272.016)" fill="#fff"/></g><g transform="translate(4.039 121.692)"><path d="M112.865,169.708a.866.866,0,1,1,.865-.866A.867.867,0,0,1,112.865,169.708Zm0-1.155a.289.289,0,1,0,.288.289A.289.289,0,0,0,112.865,168.553Z" transform="translate(-112 -167.976)" fill="#fff"/></g><g transform="translate(3.173 120.826)"><path d="M89.731,147.431a1.731,1.731,0,1,1,1.731-1.731A1.733,1.733,0,0,1,89.731,147.431Zm0-2.886a1.154,1.154,0,1,0,1.154,1.155,1.155,1.155,0,0,0-1.154-1.155Z" transform="translate(-88 -143.968)" fill="#fff"/></g><g transform="translate(2.308 129.195)"><path d="M77.559,376.617H64.288a.289.289,0,0,1,0-.577H77.559a.289.289,0,0,1,0,.577Z" transform="translate(-64 -376.04)" fill="#fff"/></g><g transform="translate(2.308 124.578)"><path d="M77.559,248.585H64.288a.289.289,0,0,1,0-.577H77.559a.289.289,0,0,1,0,.577Z" transform="translate(-64 -248.008)" fill="#fff"/></g><g transform="translate(4.616 119.96)"><path d="M136.943,120.537h-8.655a.288.288,0,0,1,0-.577h8.655a.288.288,0,1,1,0,.577Z" transform="translate(-128 -119.96)" fill="#fff"/></g><g transform="translate(10.384 126.019)"><path d="M291.414,288.561h-3.173a.288.288,0,1,1,0-.577h3.173a.288.288,0,1,1,0,.577Z" transform="translate(-287.952 -287.984)" fill="#fff"/></g><g transform="translate(13.559 127.75)"><path d="M378.885,336.553h-2.6a.288.288,0,0,1,0-.577h2.6a.288.288,0,1,1,0,.577Z" transform="translate(-376 -335.976)" fill="#fff"/></g><g transform="translate(8.074 121.401)"><path d="M227.35,160.489h-3.173a.288.288,0,0,1,0-.577h3.173a.288.288,0,1,1,0,.577Z" transform="translate(-223.888 -159.912)" fill="#fff"/></g><g transform="translate(11.249 123.131)"><path d="M314.821,208.457h-2.6a.288.288,0,1,1,0-.577h2.6a.288.288,0,1,1,0,.577Z" transform="translate(-311.936 -207.88)" fill="#fff"/></g></g></svg>