<?xml version="1.0" encoding="utf-8"?>
<!-- Generator: Adobe Illustrator 23.0.1, SVG Export Plug-In . SVG Version: 6.00 Build 0)  -->
<svg version="1.1" id="Laag_1" xmlns="http://www.w3.org/2000/svg" xmlns:xlink="http://www.w3.org/1999/xlink" x="0px" y="0px"
	 viewBox="0 0 512 512" style="enable-background:new 0 0 512 512;" xml:space="preserve">
<style type="text/css">
	.st0{fill:#FFFFFF;}
</style>
<g>
	<g>
		<path class="st0" d="M256,50c-18.8,0-34.1,15.2-34.1,34.1v204.4c0,18.8,15.2,34.1,34.1,34.1s34.1-15.3,34.1-34.1V84
			C290.1,65.2,274.8,50,256,50z"/>
	</g>
</g>
<g>
	<g>
		<path class="st0" d="M287.3,415c-1.7-4.4-4.1-8.2-7.2-11.2c-1.7-1.4-3.4-3.1-5.4-4.1c-1.7-1.4-3.7-2.4-5.8-3.1
			c-2-1.1-4.1-1.7-6.5-2c-10.9-2.4-22.8,1.4-30.6,9.2c-3.1,3.1-5.4,6.8-7.2,11.2c-1.7,4.1-2.7,8.5-2.7,12.9s1,8.9,2.7,12.9
			c1.7,4.1,4.1,7.8,7.2,11.2c3.4,3.1,7.2,5.4,11.2,7.2c4.1,1.7,8.5,2.7,12.9,2.7c4.4,0,8.8-1,12.9-2.7c4.1-1.7,7.8-4.1,11.2-7.2
			c3.1-3.4,5.4-7.2,7.2-11.2c1.7-4.1,2.7-8.5,2.7-12.9S289,419.1,287.3,415z"/>
	</g>
</g>
</svg>
