<svg xmlns="http://www.w3.org/2000/svg" width="15.318" height="15.318" viewBox="0 0 15.318 15.318"><g transform="translate(257 -31)"><path d="M-161.58,0c-3.063,0-6.761,2.2-6.761,4.93a2.573,2.573,0,0,0,.69,1.726,11.256,11.256,0,0,0-.69,4.066,8.661,8.661,0,0,0-.422-.93,2.5,2.5,0,0,0,.422-1.381c0-2.731-3.7-4.93-6.761-4.93a.9.9,0,0,0-.9.9c0,3.063,2.2,6.761,4.93,6.761a2.6,2.6,0,0,0,1.826-.775,10.617,10.617,0,0,1,.9,4.6.348.348,0,0,0,.348.348.348.348,0,0,0,.348-.348V10.792a10.964,10.964,0,0,1,.543-3.624,2.511,2.511,0,0,0,1.489.491c2.731,0,4.93-3.7,4.93-6.761A.9.9,0,0,0-161.58,0Zm-7.594,9.084A9.838,9.838,0,0,0-173.416,5.6a.35.35,0,0,0-.463.168.348.348,0,0,0,.168.463,9,9,0,0,1,4.124,3.486c-.028.031-.05.064-.08.095a1.952,1.952,0,0,1-1.4.63c-2.28,0-4.234-3.335-4.234-6.065a.2.2,0,0,1,.2-.2c2.73,0,6.065,1.954,6.065,4.233A1.781,1.781,0,0,1-169.174,9.084Zm3.562-2.121a1.885,1.885,0,0,1-1.219-.473,7.763,7.763,0,0,1,3.866-3.74.348.348,0,0,0,.159-.466.349.349,0,0,0-.466-.159,8.543,8.543,0,0,0-4.057,3.816,1.825,1.825,0,0,1-.315-1.011c0-2.28,3.335-4.233,6.065-4.233a.2.2,0,0,1,.2.2C-161.378,3.628-163.332,6.963-165.612,6.963Z" transform="translate(-81 31)" fill="#fff"/></g></svg>