<svg xmlns="http://www.w3.org/2000/svg" width="19.654" height="19.589" viewBox="0 0 19.654 19.589"><g transform="translate(-97 -59.202)"><g transform="translate(-5 -1)"><g transform="translate(102 60.202)"><path d="M111.794,78.159h-7.346a.817.817,0,0,1-.816-.816V62.651a.817.817,0,0,1,.816-.817h7.346a.816.816,0,1,0,0-1.633h-7.346A2.452,2.452,0,0,0,102,62.651V77.343a2.451,2.451,0,0,0,2.448,2.448h7.346a.816.816,0,1,0,0-1.633Z" transform="translate(-102 -60.202)" fill="#d2d2d2"/></g><g transform="translate(108.53 64.283)"><path d="M120.2,68.656l-4.963-4.9a.816.816,0,0,0-1.146,1.162l3.546,3.5h-9.5a.816.816,0,0,0,0,1.633h9.5l-3.546,3.5a.816.816,0,1,0,1.146,1.162l4.963-4.9a.817.817,0,0,0,0-1.163Z" transform="translate(-107.316 -63.524)" fill="#d2d2d2"/></g></g></g></svg>