<svg xmlns="http://www.w3.org/2000/svg" width="17.559" height="19.313" viewBox="0 0 17.559 19.313"><path d="M-308.618,440.664c0-.452,0-.9,0-1.355a.55.55,0,0,0-.3-.512,1.89,1.89,0,0,1-.6-2.713,1.9,1.9,0,0,1,2.737-.417,1.9,1.9,0,0,1-.179,3.1.65.65,0,0,0-.368.668c.043.822.055,1.646.081,2.469.009.3.1.414.4.484a4.237,4.237,0,0,1,2.311,1.363,4.172,4.172,0,0,1,1.039,3.146,4.2,4.2,0,0,1-.205,1,.417.417,0,0,0,.208.574c.176.117.361.221.529.348a.506.506,0,0,0,.587.039,1.875,1.875,0,0,1,1.857.059,1.937,1.937,0,0,1,.885,1.99,1.949,1.949,0,0,1-1.585,1.516,1.9,1.9,0,0,1-2.176-2.033.452.452,0,0,0-.226-.46c-.2-.123-.39-.256-.588-.378a.4.4,0,0,0-.572.056,4.243,4.243,0,0,1-2.374,1.156,4.2,4.2,0,0,1-2.1-.24c-.533-.2-.538-.178-.881.261a.985.985,0,0,0-.154,1.2,1.816,1.816,0,0,1-.668,2.252,1.88,1.88,0,0,1-2.408-.209,1.792,1.792,0,0,1-.46-1.971,1.8,1.8,0,0,1,1.6-1.266,1.521,1.521,0,0,1,.262-.014.468.468,0,0,0,.453-.244c.161-.251.333-.5.5-.74a.412.412,0,0,0-.014-.542,4.452,4.452,0,0,1-.843-1.686.413.413,0,0,0-.428-.333c-.284-.007-.569-.007-.852-.022a.487.487,0,0,0-.482.262,1.9,1.9,0,0,1-2.2.835,1.906,1.906,0,0,1-1.329-1.939,1.906,1.906,0,0,1,1.531-1.737,1.89,1.89,0,0,1,2.014.943.543.543,0,0,0,.549.342c.232-.011.466.02.7.024a.434.434,0,0,0,.489-.369,4.281,4.281,0,0,1,2.924-3.1c.353-.12.412-.2.409-.567,0-.415,0-.83,0-1.246Z" transform="translate(317.171 -435.266)" fill="#324bb8"/></svg>