<svg xmlns="http://www.w3.org/2000/svg" width="11.309" height="16.137" viewBox="0 0 11.309 16.137"><path d="M-125.573,303.5a39.945,39.945,0,0,0-3.074-4.329.463.463,0,0,0-.359-.171.463.463,0,0,0-.359.171,39.992,39.992,0,0,0-3.074,4.33c-1.475,2.434-2.222,4.447-2.222,5.981a5.661,5.661,0,0,0,5.655,5.655,5.661,5.661,0,0,0,5.655-5.655C-123.35,307.946-124.1,305.934-125.573,303.5Zm-2.657,9.554a4.116,4.116,0,0,1-1.019.127,3.707,3.707,0,0,1-3.831-3.559,4.549,4.549,0,0,1,.371-1.645.242.242,0,0,1,.277-.139.224.224,0,0,1,.183.238,3.583,3.583,0,0,0-.022.385,4.3,4.3,0,0,0,4,4.16.23.23,0,0,1,.211.2A.223.223,0,0,1-128.229,313.054Z" transform="translate(134.66 -299)" fill="#324bb8"/></svg>