<svg xmlns="http://www.w3.org/2000/svg" width="25.285" height="22.855" viewBox="0 0 25.285 22.855"><path d="M115.557,105.266h-1.468a3.651,3.651,0,0,0-3.638-3.4,3.721,3.721,0,0,0-.464.03,3.649,3.649,0,0,0-4.642-1.068,3.65,3.65,0,0,0-3.4,0,3.649,3.649,0,0,0-4.642,1.068,3.721,3.721,0,0,0-.464-.03,3.651,3.651,0,0,0-3.638,3.4H91.729A.73.73,0,0,0,91,106v3.889a.73.73,0,0,0,.729.73h1.538l1.236,10.7a2.189,2.189,0,0,0,2.173,1.938H110.61a2.189,2.189,0,0,0,2.173-1.938l1.236-10.7h1.538a.73.73,0,0,0,.729-.73V106A.73.73,0,0,0,115.557,105.266Zm-18.722-1.944a2.184,2.184,0,0,1,.611.086.73.73,0,0,0,.851-.364,2.187,2.187,0,0,1,3.217-.77.726.726,0,0,0,.852,0,2.189,2.189,0,0,1,2.552,0,.726.726,0,0,0,.852,0,2.187,2.187,0,0,1,3.217.77.73.73,0,0,0,.851.364,2.191,2.191,0,0,1,2.786,1.858H94.66A2.191,2.191,0,0,1,96.835,103.322Zm14.5,17.832a.73.73,0,0,1-.724.646H96.676a.73.73,0,0,1-.724-.646l-1.215-10.538h17.813Zm3.492-12H92.459v-2.432h22.367Z" transform="translate(-91 -100.404)" fill="#d2d2d2"/></svg>