<svg xmlns="http://www.w3.org/2000/svg" width="14.813" height="19.751" viewBox="0 0 14.813 19.751">
  <g id="Group_81" data-name="Group 81" transform="translate(-55.852 -372.398)">
    <g id="Group_80" data-name="Group 80" transform="translate(55.852 372.398)">
      <g id="Group_79" data-name="Group 79">
        <path id="Path_768" data-name="Path 768" d="M71.2,402.62l-.259,2.334a.412.412,0,0,0,.409.457h1.646a.412.412,0,0,0,.409-.457l-.26-2.334a1.627,1.627,0,0,0,.674-1.323,1.646,1.646,0,1,0-3.292,0A1.627,1.627,0,0,0,71.2,402.62Zm.972-2.147a.82.82,0,0,1,.355,1.561.411.411,0,0,0-.23.416l.238,2.138h-.727l.238-2.138a.411.411,0,0,0-.23-.416.82.82,0,0,1,.355-1.561Z" transform="translate(-64.765 -388.951)" fill="#c1c1c1"/>
        <path id="Path_769" data-name="Path 769" d="M70.254,379.8H69.019v-1.646a5.761,5.761,0,1,0-11.522,0V379.8H56.263a.411.411,0,0,0-.411.411V390.5A1.647,1.647,0,0,0,57.5,392.15H69.019a1.648,1.648,0,0,0,1.646-1.646V380.216A.411.411,0,0,0,70.254,379.8Zm-11.933-1.646a4.938,4.938,0,1,1,9.876,0V379.8h-.823v-1.646a4.115,4.115,0,0,0-8.23,0V379.8h-.823Zm8.23,0V379.8H59.967v-1.646a3.292,3.292,0,1,1,6.584,0ZM69.843,390.5a.824.824,0,0,1-.823.823H57.5a.824.824,0,0,1-.823-.823v-9.876H69.843Z" transform="translate(-55.852 -372.398)" fill="#c1c1c1"/>
      </g>
    </g>
  </g>
</svg>
