<svg xmlns="http://www.w3.org/2000/svg" width="155.078" height="201.287" viewBox="0 0 155.078 201.287">
  <g id="Group_89" data-name="Group 89" transform="translate(-189.229 -160.931)">
    <g id="Group_82" data-name="Group 82" transform="translate(308.738 242.545)">
      <path id="Path_770" data-name="Path 770" d="M300.855,239.457a14.652,14.652,0,0,0-2.993,12.149c1.408,7.394,2.993,8.979,3.7,8.8s.881-5.194,2.818-4.842,11.466,8.141,18.751,8.275c8.715.161,14.086-15.934,6.162-22.008s-17.606-.2-23.416-2.959S300.855,239.457,300.855,239.457Z" transform="translate(-297.584 -234.634)" fill="#001489"/>
      <ellipse id="Ellipse_1" data-name="Ellipse 1" cx="6.559" cy="9.904" rx="6.559" ry="9.904" transform="translate(20.438 6.76)" fill="#041351"/>
      <path id="Path_771" data-name="Path 771" d="M315.657,242.988a.6.6,0,0,1-.564-.4c-.022-.065-2.3-6.467-5.912-6.467-.026,0-.053,0-.078,0a.6.6,0,0,1-.012-1.195h.092c4.462,0,6.935,6.969,7.039,7.268a.6.6,0,0,1-.368.759A.582.582,0,0,1,315.657,242.988Z" transform="translate(-296.46 -234.928)" fill="#041351"/>
    </g>
    <path id="Path_772" data-name="Path 772" d="M264.931,227.165c-.824-5.065-8.833-7.892-8.833-7.892l-10.129,2.474,3.491,21.494,18.475,13.482C266.751,245.819,265.515,230.755,264.931,227.165Z" transform="translate(5.841 6.006)" fill="#e8a022"/>
    <path id="Path_773" data-name="Path 773" d="M218.222,320.235c-7.783-1.365-10.626,2.8-10.626,2.8-2.661,4.113,1.935,10.644,1.935,10.644-3.266,8.709-.12,11.128,1.814,12.337s17.78,1.451,17.539,0-6.653-3.992-7.62-5.927,2.177-10.523,2.177-10.523c10.043-3.133,33.216-14.7,49.912-24.418a85.979,85.979,0,0,1-5.426-9.9S226.006,321.6,218.222,320.235Z" transform="translate(1.805 13.826)" fill="#ffc9b1"/>
    <g id="Group_83" data-name="Group 83" transform="translate(189.229 175.51)">
      <path id="Path_774" data-name="Path 774" d="M310.381,183.945l-9.556-8.1-15.965-1.693-12.822,9.8s-20.2,13.669-30.722,19.958-22.376,24.8-30.117,37.5c-4.6,7.546-11.077,22.692-15.933,38.232,21.364,8.224,37.883,6.324,37.883,6.324v0c.063-6.271,2.6-15.168,2.6-15.168s11.975-8.225,16.571-16.087,13.546-30.721,13.546-30.721,10.16-8.346,12.943-4.6,9.8,8.225,10.885,8.587,6.411-4.6,8.709-7.256,5.2-2.177,6.41-2.661,1.089-4.6,1.089-4.6c1.573-9.556,2.3-4.354,6.29-14.273S310.381,183.945,310.381,183.945Z" transform="translate(-188.607 -174.149)" fill="#ffc9b1"/>
      <path id="Path_775" data-name="Path 775" d="M230.04,279.345l-.427-3.822A12.919,12.919,0,0,0,230.04,279.345Z" transform="translate(-185.072 -163.714)" fill="#fff0e9"/>
      <path id="Path_776" data-name="Path 776" d="M195.887,269.9c-3.317,10.617-5.878,21.418-6.565,30.107-1.693,21.408,20.079,25.762,20.079,25.762s2.842-4.165,10.626-2.8,49.705-24.988,49.705-24.988a85.979,85.979,0,0,0,5.427,9.9c8.437-4.91,15.223-9.35,17.821-11.989,7.742-7.862,9.918-23.585-5.806-26.731S234.2,280.047,234.2,280.047a12.918,12.918,0,0,1-.427-3.822v0S217.251,278.121,195.887,269.9Z" transform="translate(-189.229 -164.416)" fill="#ffe98a"/>
    </g>
    <path id="Path_777" data-name="Path 777" d="M310.2,188.017s-10.13,14.109-34.83,12.087c0,0-.409,5.053.82,17.206s-3.96,18.3-15.158,18.435c0,0-6.964-12.29-8.329-18.845s-8.218-11.838-12.562-10.514-16.7,14.825-16.7,14.825-8.431-1.443-8.021-10.592,7.236-14.474,13.108-14.747c0,0-3.414-8.057,5.053-15.7s22.394.683,26.218-.683,9.559-14.065,18.571-17.069,19.526-.955,22.394,1.776,15.158,22.8,14.475,25.4-3.718,6.555-3.718,6.555S312.085,190.728,310.2,188.017Z" transform="translate(2.695)" fill="#001489"/>
    <g id="Group_84" data-name="Group 84" transform="translate(250.565 249.247)">
      <path id="Path_778" data-name="Path 778" d="M268.05,254.486,249.575,241l.985,6.067,3.416,15.547s-1.8,1.414-5.2,9.423-5.521,22.614-2.458,23.2c0,0,1.531-.117,1.884-2.591,0,0,2.709,8.244,7.068,6.479s2.238-16.49,0-20.731a9.19,9.19,0,0,1,6.007-5.176c4.594-1.3,9.6-1.656,8.156-8.486C269.014,262.75,268.537,258.966,268.05,254.486Z" transform="translate(-244.84 -241.004)" fill="#ffdacc"/>
    </g>
    <g id="Group_85" data-name="Group 85" transform="translate(197.456 206.255)">
      <path id="Path_779" data-name="Path 779" d="M271.7,243.972a90.122,90.122,0,0,1-5.462-9.453c-2.151-4.352-4.445-9.1-6.473-13.348a55.9,55.9,0,0,0-6.023-12.724l0,0h0c-3.334-4.858-7.6-7.873-12.935-5.7-13.347,5.424-27.957,30.14-32.6,39.015s-11.51,30.165-11.51,30.165,22.89,14.015,48.993,10.641a1.576,1.576,0,0,0,1.33-1.233c.871-4.031,4.014-18.168,6.114-22.368.748-1.493,2.151-3.95,3.681-6.843.856,1.054,1.728,2.12,2.61,3.184A18.907,18.907,0,0,0,271.7,243.972Z" transform="translate(-196.688 -202.025)" fill="#ffbf1f"/>
      <path id="Path_780" data-name="Path 780" d="M308.172,228.826c-3.414.956-5.188,8.329-6.827,9.968s-26.764,14.065-26.764,14.065a107,107,0,0,1-8.74-11.575,18.907,18.907,0,0,1-12.281,11.33c7.973,9.626,16.654,19.092,20.065,19.225,6.964.274,26.9-27.037,32.909-27.037s10.378-3.96,10.378-5.734.819-2.6,2.322-.956,2.048.274,2.048.274C321.964,226.095,311.587,227.869,308.172,228.826Z" transform="translate(-190.834 -199.336)" fill="#ffc9b1"/>
    </g>
    <g id="Group_87" data-name="Group 87" transform="translate(297.833 289.23)">
      <path id="Path_781" data-name="Path 781" d="M318.371,286.6a13.028,13.028,0,0,0,3.824-9.342,13.028,13.028,0,0,0-13.144,12.623,20.655,20.655,0,0,0-3.4,5.545,14.606,14.606,0,0,0-.806-2.129,13.025,13.025,0,0,0-13.137-12.484,13.03,13.03,0,0,0,12.748,13.148c.894,2.048,1.67,5.327,1.628,10.53l.613.006a33.916,33.916,0,0,0-.731-7.878c.3-1.875,1.907-4.271,3.454-6.211A13,13,0,0,0,318.371,286.6Z" transform="translate(-287.283 -277.256)" fill="#5bd3a7"/>
      <g id="Group_86" data-name="Group 86" transform="translate(0 26.32)">
        <path id="Path_782" data-name="Path 782" d="M322.725,307.009H291.271l4.469,35.554A2.784,2.784,0,0,0,298.5,345h16.99a2.785,2.785,0,0,0,2.764-2.437Z" transform="translate(-287.328 -300.513)" fill="#e8a022"/>
        <path id="Path_783" data-name="Path 783" d="M291.271,307.009l.541,4.3h30.373l.541-4.3Z" transform="translate(-287.328 -300.513)" fill="#d17e07"/>
        <path id="Path_784" data-name="Path 784" d="M324.563,309.721H290.17a1.169,1.169,0,0,1-1.145-.93l-1.3-6.266a1.168,1.168,0,0,1,1.144-1.406h37a1.169,1.169,0,0,1,1.145,1.406l-1.3,6.266A1.168,1.168,0,0,1,324.563,309.721Z" transform="translate(-287.696 -301.119)" fill="#f2b148"/>
      </g>
    </g>
    <g id="Group_88" data-name="Group 88" transform="translate(308.398 271.089)">
      <path id="Path_785" data-name="Path 785" d="M297.352,261.4v4.438a.615.615,0,0,0,1.229,0V261.4a.615.615,0,0,0-1.229,0Z" transform="translate(-297.268 -260.808)" fill="#cffbfc"/>
      <path id="Path_786" data-name="Path 786" d="M299.126,265.712q.026,2.187.052,4.375a.615.615,0,0,0,1.229,0l-.052-4.375a.615.615,0,0,0-1.229,0Z" transform="translate(-297.086 -260.364)" fill="#cffbfc"/>
      <path id="Path_787" data-name="Path 787" d="M297.279,270.542a29.337,29.337,0,0,1,.061,4.751c-.054.79,1.175.786,1.229,0a29.334,29.334,0,0,0-.061-4.751c-.074-.78-1.3-.788-1.229,0Z" transform="translate(-297.276 -259.866)" fill="#cffbfc"/>
      <path id="Path_788" data-name="Path 788" d="M300.571,270.943v5.325a.615.615,0,0,0,1.229,0v-5.325a.615.615,0,0,0-1.229,0Z" transform="translate(-296.937 -259.826)" fill="#cffbfc"/>
      <path id="Path_789" data-name="Path 789" d="M300.814,263.47l-.081,3.043a.615.615,0,0,0,1.229,0l.079-3.043a.614.614,0,0,0-1.228,0Z" transform="translate(-296.92 -260.595)" fill="#cffbfc"/>
    </g>
    <path id="Path_790" data-name="Path 790" d="M286.358,204.826a2.8,2.8,0,1,1-2.8-2.8A2.8,2.8,0,0,1,286.358,204.826Z" transform="translate(9.421 4.23)" fill="#f9aca2"/>
    <path id="Path_791" data-name="Path 791" d="M278.836,182.371c-7.413,5.7-9.95,14.911-9.375,23.949.339,5.319,1.935,10.617,1.364,15.969-.612,5.761-5.11,12.39-11.726,9.971-.9-.329-1.3,1.126-.4,1.438a9.658,9.658,0,0,0,10.343-2.863c3.133-3.489,3.727-8.5,3.415-12.992-.421-6.074-1.893-11.922-1.266-18.058.656-6.412,3.256-12.4,8.333-16.517C280.026,182.865,279.351,181.975,278.836,182.371Z" transform="translate(7.099 2.197)" fill="#1337aa"/>
    <path id="Path_792" data-name="Path 792" d="M303.838,182.539c-2.067,3.891-5.476,6.043-9.2,8.178-.631.363-.076,1.281.565.967,3.629-1.776,7.82-4.012,9.132-8.082a.238.238,0,0,0,.167-.212l.057-.655A.392.392,0,0,0,303.838,182.539Z" transform="translate(10.823 2.205)" fill="#1337aa"/>
    <path id="Path_793" data-name="Path 793" d="M276.015,162.472c-5.5,2.425-8.121,7.788-11.6,12.339-1.348,1.762-3,3.741-5.251,4.328-2.426.633-4.712-.684-6.756-1.812a24.048,24.048,0,0,0-8.98-3.225c-11.541-1.311-23.678,10.327-17.078,21.853.328.574,1.119.071.865-.506a13.871,13.871,0,0,1,6.671-18.318,17.383,17.383,0,0,1,10.86-1.25c3.573.674,6.3,2.757,9.577,4.112,4.446,1.839,7.964-.152,10.778-3.694,3.585-4.51,6.071-10.189,11.526-12.78C277.338,163.182,276.718,162.164,276.015,162.472Z" transform="translate(3.629 0.153)" fill="#1337aa"/>
    <path id="Path_794" data-name="Path 794" d="M226.614,192.529c-9.835.217-13.91,12.469-9.534,20.109.356.621,1.244.076.946-.553-3.311-7-.511-18.041,8.588-18.624C227.207,193.423,227.22,192.515,226.614,192.529Z" transform="translate(2.687 3.253)" fill="#1337aa"/>
    <path id="Path_795" data-name="Path 795" d="M253.406,186.429c-6.054,3.518-9.492,10.287-9.87,17.137-.038.664.969.65,1.026,0,.59-6.816,4.2-12.183,9.48-16.314C254.518,186.88,253.908,186.138,253.406,186.429Z" transform="translate(5.59 2.618)" fill="#1337aa"/>
    <path id="Path_796" data-name="Path 796" d="M243.9,203.936a13.131,13.131,0,0,1-.167-8.688c.234-.7-.866-1-1.1-.3a11.439,11.439,0,0,0,.651,9.251C243.453,204.53,244.027,204.3,243.9,203.936Z" transform="translate(5.427 3.461)" fill="#1337aa"/>
    <path id="Path_797" data-name="Path 797" d="M303.583,181.9a38.825,38.825,0,0,1-11.464,6.806c-.672.24-.387,1.318.3,1.08a28.137,28.137,0,0,0,11.711-7.342A.385.385,0,0,0,303.583,181.9Z" transform="translate(10.552 2.149)" fill="#1337aa"/>
    <path id="Path_798" data-name="Path 798" d="M302.39,181.312a31.574,31.574,0,0,1-18.823,7.662c-.726.05-.742,1.16,0,1.143a30.832,30.832,0,0,0,19.746-7.882C303.945,181.678,303.02,180.761,302.39,181.312Z" transform="translate(9.654 2.081)" fill="#1337aa"/>
    <path id="Path_799" data-name="Path 799" d="M302.736,190.674c-.625,8.9-8.675,15.442-7.886,24.565a.572.572,0,0,0,1.143,0c.32-5.259,2.1-9.021,4.628-13.564a23.379,23.379,0,0,0,3.328-11C303.967,189.888,302.79,189.9,302.736,190.674Z" transform="translate(10.867 3.002)" fill="#f9aca2"/>
    <path id="Path_800" data-name="Path 800" d="M294.335,214.125c-2.887,1.21-4.926,3.306-7.091,5.507l-.186.191a14.992,14.992,0,0,1-1.757-6.129A6.817,6.817,0,0,0,288.648,211c.317-.479-.44-1.082-.805-.622-1.464,1.845-4.165,3.326-6.308,1.558a.467.467,0,0,0-.66.66,3.97,3.97,0,0,0,3.433,1.325,9.544,9.544,0,0,0,1.907,6.661.531.531,0,0,0,.049.041c-1.735,1.712-3.492,3-6.276,1.646-2.056-1-4.018-3.011-5.726-4.47-.7-.6-1.728.412-1.022,1.022,2.257,1.947,6.459,6.631,9.8,5.321,1.787-.7,3.407-2.682,4.725-3.989,2.069-2.051,4.035-4.1,6.794-5.216C295.054,214.734,294.831,213.918,294.335,214.125Z" transform="translate(8.624 5.073)" fill="#f9aca2"/>
    <path id="Path_801" data-name="Path 801" d="M293.757,197.951a3.967,3.967,0,0,0-3.1,1.511,3.145,3.145,0,0,0-.74,1.914,2.12,2.12,0,0,0,.275,1.918c1.67,2.294,4.632-.965,5.157-2.638C295.738,199.4,295.224,198.033,293.757,197.951Z" transform="translate(10.353 3.81)" fill="#f9aca2"/>
    <path id="Path_802" data-name="Path 802" d="M307.457,228.144a8.4,8.4,0,0,0-4.736,4.669,28.286,28.286,0,0,1-2.509,4.9,15.827,15.827,0,0,1-5.03,3.871,208.356,208.356,0,0,1-21.806,10.781c-.443-.424-.89-.847-1.335-1.283-2.835-2.778-4.772-6.186-6.668-9.634-.282-.514-1.059-.058-.785.459a47.915,47.915,0,0,0,5.058,8.171c2.358,2.868,5.792,4.9,7.251,8.434a.534.534,0,1,0,.981-.412,16.34,16.34,0,0,0-3.923-5.176c7.047-3.018,14.121-6.219,20.867-9.859,2.315-1.249,4.821-2.472,6.331-4.715,2.14-3.178,2.457-7.861,6.536-9.376C308.2,228.784,307.985,227.959,307.457,228.144Z" transform="translate(7.751 6.916)" fill="#f9aca2"/>
    <path id="Path_803" data-name="Path 803" d="M314.119,234.609a2.166,2.166,0,0,0-2.285.309,3.321,3.321,0,0,0-1.178,2.074c-.08.367.458.644.639.269a4.266,4.266,0,0,1,.888-1.274,1.62,1.62,0,0,1,1.515-.376C314.269,235.7,314.7,234.937,314.119,234.609Z" transform="translate(12.499 7.563)" fill="#f9aca2"/>
    <path id="Path_804" data-name="Path 804" d="M275.67,268.818c-4.708-.045-8.547-5.669-11.529-8.752-3.155-3.261-6.085-6.837-9.387-9.941-.2-.183-.544.056-.385.3a54.941,54.941,0,0,0,6.469,7.807c-6.639-2.077-10.8,9.569-12.6,13.987A47.623,47.623,0,0,0,244.7,285.3c-.254,2.511-1.072,7.86,1.706,9.314a.4.4,0,0,0,.469-.061,4.394,4.394,0,0,0,.92-1.03c1.584,4.2,4.256,8.024,8.006,5.57,2.5-1.638,2.64-5.8,2.677-8.417a43.5,43.5,0,0,0-2.474-13.578c-.256-.812-1.534-.468-1.282.354,1.569,5.113,3.21,10.52,2.58,15.933a8.522,8.522,0,0,1-.835,3.178l-3.416,1.751c-1.964.109-3.524-3.965-4.073-5.378a56.234,56.234,0,0,1-1.928-6.622c-.132-.524-1-.43-.962.13a28.3,28.3,0,0,0,1.41,6.253c-.121.228-.248.418-.351.449-1.78.535-1.633-2.228-1.67-3.043a27.72,27.72,0,0,1,.261-4.732,47.658,47.658,0,0,1,2.444-9.819c1.846-5.227,5.654-16.846,12.822-15.674a.872.872,0,0,0,.912-.559c1.163,1.149,2.34,2.264,3.508,3.33,2.635,2.406,6.239,7.405,10.24,7.1A.467.467,0,0,0,275.67,268.818Z" transform="translate(5.679 9.175)" fill="#f9aca2"/>
    <path id="Path_805" data-name="Path 805" d="M225.189,320.2a17.569,17.569,0,0,1-3.356,2.047c-1.09.36-2.213-.01-3.285.374-.907.324-.543,1.749.4,1.461a9.261,9.261,0,0,1,2.2-.026,5.039,5.039,0,0,0,1.756-.467,7.5,7.5,0,0,0,3.035-2.64C226.264,320.489,225.635,319.924,225.189,320.2Z" transform="translate(2.964 16.387)" fill="#f9aca2"/>
    <path id="Path_806" data-name="Path 806" d="M276.249,302.23c-8.852,4.232-17.428,9.119-26.185,13.554-8.651,4.381-17.375,9.038-26.666,11.916a.546.546,0,0,0-.929.28l-1.562,8.643a6.119,6.119,0,0,0-.242,2.539c-2.025.341-3.793,1.876-5.2,3.287-.324.326,0,1,.476.818,1.978-.746,3.243-2.943,5.548-2.87a.64.64,0,0,0,.272-.049,1.017,1.017,0,0,1,.142.057,13.631,13.631,0,0,1,3.876,2.456c.732.738,1.991,1.685,1.1,2.747-.681.814-4.1.761-5.029.814a20.376,20.376,0,0,1-7.9-.942c-3.76-1.359-4.967-4.765-4.648-8.465.147-1.7,1.019-3.581.553-5.288-.421-1.543-1.671-2.82-2.123-4.422a7.556,7.556,0,0,1,.329-5.5c.288-.615-.6-1.159-.925-.542a8.374,8.374,0,0,0-.517,6.875c.668,1.918,2.12,3.287,2.065,5.446-.04,1.494-.674,3-.721,4.529-.192,6.062,4.185,8.741,9.689,9.357,2.093.235,12.015.992,10.514-3.259-.879-2.493-3.1-3.29-4.962-4.766-1.027-.813-1.146.5-1.081-1.885a18.322,18.322,0,0,1,.377-2.316q.5-3.1,1.008-6.193l.019,0c9.022-3.16,17.616-7.357,26.163-11.61,9.107-4.532,18.361-9.065,27.152-14.185C277.519,302.867,276.931,301.9,276.249,302.23Z" transform="translate(1.739 14.538)" fill="#f9aca2"/>
    <path id="Path_807" data-name="Path 807" d="M244.647,245.467A75.8,75.8,0,0,1,231.2,261.411c-.591.536.282,1.4.874.874A71.96,71.96,0,0,0,245.552,246C245.905,245.417,245,244.9,244.647,245.467Z" transform="translate(4.301 8.677)" fill="#d48320"/>
    <path id="Path_808" data-name="Path 808" d="M239.647,255.074a92.516,92.516,0,0,1-8.021,7.8c-.43.371.205,1.015.626.627a111.8,111.8,0,0,0,7.839-7.985C240.359,255.218,239.92,254.773,239.647,255.074Z" transform="translate(4.35 9.681)" fill="#d48320"/>
    <path id="Path_809" data-name="Path 809" d="M271.638,243.42c-1.619,2.512-3.013,4.936-5.31,6.925a20.023,20.023,0,0,1-3.689,2.529,19.036,19.036,0,0,0-2.57,1.307c-1.185-1.432-2.331-2.889-3.462-4.357a21.458,21.458,0,0,0,12.361-9.15c.485-.718-.725-1.438-1.168-.683a19.9,19.9,0,0,1-11.681,8.806.621.621,0,0,0-.213.114c-4.958-6.517-9.482-13.331-14.066-20.134a.5.5,0,0,0-.866.506,175.627,175.627,0,0,0,15.648,22.289c-.492,2.734-2.972,5.053-4.187,7.508a39.539,39.539,0,0,0-2.6,7.017c-1.422,5.144-2.563,10.475-3.545,15.722-8.954,1.28-18.034-.363-26.817-2.16-7.825-1.6-15.448-4.034-22.007-8.688a.556.556,0,0,0,.363-.333c2.378-5.718,4.018-11.725,6.486-17.433,2.353-5.437,5.047-10.713,7.907-15.9,5.918-10.735,13.151-20.255,21-29.629.444-.533-.276-1.289-.775-.775-8.453,8.7-15.621,19.08-21.631,29.582a144.7,144.7,0,0,0-7.662,15.682c-2.436,5.779-5.177,12.008-6.334,18.2a.642.642,0,0,0,0,.205c-.61-.16-1.082.819-.46,1.274,7.063,5.155,15.447,7.536,23.934,9.15,8.722,1.658,18.136,3.811,26.982,2a.62.62,0,0,0,.125-1.16c1.96-4.882,2.527-10.269,3.92-15.325,1.386-5.027,3.945-9.376,5.973-14.1q1.108,1.378,2.224,2.746a.441.441,0,0,0,.7.012c2.34.073,5.178-2.276,6.78-3.651a17.018,17.018,0,0,0,5.479-7.742A.457.457,0,0,0,271.638,243.42Z" transform="translate(0.703 4.715)" fill="#d48320"/>
    <path id="Path_810" data-name="Path 810" d="M324.823,260.224c-8.028,3.275-9.744-15.034-3.269-18.169.9-.435.088-1.866-.789-1.349-4.47,2.634-5.367,8.7-4.467,13.44.77,4.053,3.984,8.733,8.723,6.8C325.459,260.763,325.269,260.042,324.823,260.224Z" transform="translate(13.048 8.201)" fill="#041351"/>
    <path id="Path_811" data-name="Path 811" d="M326.927,261.221c-4.344,2.292-10.435.175-14.167-2.456-2.274-1.6-5.036-4.9-8.118-4.822-2.5.063-2.453,2.743-3.288,4.443-.444.9.28,2.067-.926-1-.318-.806-.6-1.62-.859-2.449a28.777,28.777,0,0,1-1.257-7.469.688.688,0,0,0-1.375,0c.076,3.738.511,9.522,3.24,12.433,2.2,2.351,2.429-2.4,3.109-3.444,1.882-2.876,5.429.615,7.274,2.066a21.8,21.8,0,0,0,5.142,3.135c3.672,1.52,7.992,2.261,11.5.029A.268.268,0,0,0,326.927,261.221Z" transform="translate(11.087 8.84)" fill="#041351"/>
    <path id="Path_812" data-name="Path 812" d="M233.047,279.182a35.974,35.974,0,0,0-5.526,1.394c.513-1.429.912-3.248.231-4.479a.177.177,0,0,0-.319.042,16.805,16.805,0,0,0-.308,2.552,12.86,12.86,0,0,1-.62,2.242c-10.218,3.738-19.422,11.792-25.45,20.287-.439.619.564,1.175,1.007.588a59.307,59.307,0,0,1,14.195-13.546c5.357-3.6,11.112-5.733,17.069-8.068A.525.525,0,0,0,233.047,279.182Z" transform="translate(1.206 11.846)" fill="#f7d95c"/>
    <path id="Path_813" data-name="Path 813" d="M210.9,288.031a31.188,31.188,0,0,0-10.609,5.562c-.491.392.205,1.087.693.693a35.563,35.563,0,0,1,10.06-5.738C211.358,288.431,211.233,287.93,210.9,288.031Z" transform="translate(1.121 13.082)" fill="#f7d95c"/>
    <path id="Path_814" data-name="Path 814" d="M224.06,278.177c-.133-1-1.531-1.735-2.272-.819a1.467,1.467,0,0,0-.311.668,1.02,1.02,0,0,0,.245,1.059,1.564,1.564,0,0,0,1.258.413A1.174,1.174,0,0,0,224.06,278.177Z" transform="translate(3.314 11.942)" fill="#f7d95c"/>
    <path id="Path_815" data-name="Path 815" d="M277.013,286.212c-1.1.493-2.166,1.064-3.232,1.635q1.588-1.792,3.013-3.654c.386-.507-.452-1.138-.879-.678a110.668,110.668,0,0,1-14.82,13.918,123.433,123.433,0,0,1-16.726,10.052c-.2.1-.061.438.153.363a72.611,72.611,0,0,0,27.589-18.182,25.742,25.742,0,0,0,5.408-2.587A.5.5,0,0,0,277.013,286.212Z" transform="translate(5.666 12.602)" fill="#f7d95c"/>
  </g>
</svg>
