<svg xmlns="http://www.w3.org/2000/svg" width="56.611" height="67.847"><g fill="none" stroke="#4368d1" stroke-miterlimit="10"><path d="M13.404 26.721c.124-2.164 1.182-3.52 3.051-4.9a12.921 12.921 0 01-.493 3.566 8.415 8.415 0 00-.994 5.205c.334 1.508 2.924 5.9 7.792 8.143l-.1.22c-.5 3.275-3.5 6.617-3.928 7.721-2.15 5.539-.394 14.644-.394 14.644-4.73 2.885-12.334-.092-12.334-.092a19.7 19.7 0 00.2-4.123s-.841 2.959-1.607 3.545C3.962 61.133.96 59.408.96 59.408a32.321 32.321 0 01.493-12.362c1.4-5.553 6.916-10.854 8.548-13.1a14.174 14.174 0 002.441-7.292z"/><path d="M53.842 48.908a15.053 15.053 0 012.257 8.764c-.082 2.313-2.044 4.123-2.643 4.875-.334.415-1.654-2.973-1.987-3.719 0 0 .344 4.3 1.331 5.29a27.132 27.132 0 01-12.16 3.225c-6.366-.082-6.366-3.8-6.614-5.127 0 0 .248 3.555-.415 4.219s-5.124.412-5.787 0-4.244-6.036-.841-14.8c3.073-7.9 10.5-10.9 13.622-15.289a.012.012 0 00.007 0 8.245 8.245 0 00.855-1.49 4.815 4.815 0 004.879-.848c2.729-2.108 2.2-5.617.185-6.575-2.6-1.238-4.63 1.405-4.63 1.405-2.686-11.081 1.249-16.56-.018-18.206-.621-.809-2.172-.458-2.172-.458S39.484 6.2 36.67 6.292c-2.306.075-3.534 4.584-11.78 10.166-3.619 2.448-6.476 3.921-8.434 5.365-1.87 1.38-2.927 2.736-3.052 4.9l-.965-.071c.532-5.72-.617-12.039 3.648-17.429 5.021-6.344 14-7.76 17.3-8.019 7.629-.6 9.055 4.517 9.055 4.517s5.706-1.952 9.311 2.264 2.973 18.685 2.093 25.3-2.097 12.15-.004 15.623z"/><path d="M46.529 27.431c2.012.958 2.544 4.467-.184 6.575a4.815 4.815 0 01-4.879.848 8.246 8.246 0 01-.855 1.49.012.012 0 01-.007 0 18.416 18.416 0 01-12.554 3.722 14.8 14.8 0 01-5.29-1.334c-4.868-2.246-7.458-6.635-7.792-8.143a8.415 8.415 0 01.994-5.205 12.922 12.922 0 00.493-3.566c1.959-1.444 4.815-2.917 8.434-5.365 8.246-5.581 9.474-10.091 11.78-10.166 2.814-.092 3.041 3.882 3.041 3.882s1.551-.351 2.172.458c1.267 1.646-2.668 7.125.018 18.206-.001.003 2.025-2.641 4.629-1.402z"/></g><path d="M13.523 29.244a10.011 10.011 0 01-.288-2.49 5.606 5.606 0 01.615-2.467 6.863 6.863 0 011.619-1.961 18.7 18.7 0 012.028-1.477c1.4-.9 2.838-1.714 4.228-2.605s2.778-1.787 4.106-2.755a43.6 43.6 0 007.243-6.663c.549-.617 1.092-1.243 1.716-1.823a4.008 4.008 0 011.077-.748 1.988 1.988 0 01.667-.174 4.539 4.539 0 01.673.029 2.647 2.647 0 011.207.567 3.536 3.536 0 01.788 1.038 6.08 6.08 0 01.582 2.451.075.075 0 01-.072.077.074.074 0 01-.076-.064 6.728 6.728 0 00-.73-2.3 3.172 3.172 0 00-.738-.9 2.317 2.317 0 00-1.026-.45 4.38 4.38 0 00-.565-.011 1.546 1.546 0 00-.523.151 3.563 3.563 0 00-.932.688c-.577.558-1.1 1.2-1.646 1.822a43.656 43.656 0 01-3.454 3.6 41.489 41.489 0 01-3.9 3.118c-1.359.962-2.762 1.843-4.177 2.706s-2.842 1.7-4.222 2.6a17.748 17.748 0 00-1.967 1.458 6.665 6.665 0 00-1.542 1.826 5.5 5.5 0 00-.65 2.287 11.782 11.782 0 00.12 2.443.083.083 0 01-.071.095.084.084 0 01-.09-.068zM42.751 31.506a2.569 2.569 0 01.305-.988 2.487 2.487 0 01.7-.824 1.838 1.838 0 011.067-.361 1.874 1.874 0 011.028.3.171.171 0 01.061.233.17.17 0 01-.156.084h-.025a3.028 3.028 0 00-.853.01 1.673 1.673 0 00-.7.309 4.986 4.986 0 00-1.1 1.335l-.008.013a.172.172 0 01-.238.053.172.172 0 01-.081-.164zM43.245 4.517c.39.19.992-3.941-.165-4.476s-.414 4.195.165 4.476zM44.484 4.436s.165-2.668 2.645-2.655c1.632.009-1.363 3.118-2.645 2.655zM42.345 8.125a2.717 2.717 0 012.207.751 3.962 3.962 0 01.748.936 4.438 4.438 0 01.433 1.111 17.1 17.1 0 01.115 4.608 119.16 119.16 0 01-.311 4.548c-.063.757-.145 1.513-.218 2.269s-.157 1.512-.3 2.264a.075.075 0 01-.088.06.075.075 0 01-.061-.071c-.034-.764-.009-1.524.026-2.283s.062-1.519.107-2.277c.093-1.517.188-3.033.339-4.546a12.977 12.977 0 00-.006-4.467 4.134 4.134 0 00-1.065-1.85 2.883 2.883 0 00-1.91-.886.084.084 0 01-.082-.087.086.086 0 01.066-.08zM43.865 37.011a9.5 9.5 0 01-1.013 2.9 17.134 17.134 0 01-1.7 2.553c-1.261 1.6-2.6 3.131-3.735 4.786a18.882 18.882 0 00-2.579 5.378 18.743 18.743 0 00-.627 2.93 28.508 28.508 0 00-.2 3.009.075.075 0 01-.076.073.075.075 0 01-.072-.064 12.786 12.786 0 01-.07-3.064 17.341 17.341 0 01.535-3.032 17.332 17.332 0 011.08-2.889 16.922 16.922 0 011.6-2.634c1.2-1.662 2.618-3.126 3.819-4.746a17.656 17.656 0 002.883-5.239.084.084 0 01.105-.055.084.084 0 01.05.094z" fill="#4368d1"/><path d="M43.209 7.782a5.125 5.125 0 011.956-.105 6.147 6.147 0 011.875.594 7.711 7.711 0 012.922 2.6 10.461 10.461 0 011.43 3.643 19.4 19.4 0 01.348 3.877 45.226 45.226 0 01-2.55 15.219 52.383 52.383 0 01-3.324 7c-1.242 2.255-2.53 4.476-3.593 6.8a25.833 25.833 0 00-2.245 7.276 15.215 15.215 0 00.73 7.518.074.074 0 01-.043.1.074.074 0 01-.094-.038 14.069 14.069 0 01-1.012-7.63 25.706 25.706 0 012.178-7.444c1.068-2.359 2.346-4.6 3.584-6.852a51.788 51.788 0 003.348-6.9 42.372 42.372 0 002.6-15.042 19.4 19.4 0 00-.345-3.793 10.357 10.357 0 00-1.363-3.5 7.559 7.559 0 00-2.728-2.531 5.45 5.45 0 00-3.64-.622.084.084 0 01-.1-.065.084.084 0 01.066-.105zM52.564 36.757a21.124 21.124 0 01-1.535 6.666c-.847 2.133-1.979 4.124-2.789 6.221a25.491 25.491 0 00-.977 3.224 31.107 31.107 0 00-.614 3.32 15.148 15.148 0 00-.106 3.347 9.479 9.479 0 00.881 3.212.074.074 0 01-.033.1.076.076 0 01-.095-.024 7.365 7.365 0 01-1.173-3.24 14.635 14.635 0 010-3.457 24.978 24.978 0 011.651-6.669c.876-2.13 2.095-4.064 2.873-6.184a38.114 38.114 0 001.755-6.535.084.084 0 01.1-.068.085.085 0 01.062.087zM51.268 47.673l.043 2.814a11.63 11.63 0 00.466 2.759 24.52 24.52 0 00.913 2.639c.1.212.182.429.273.644l.3.634c.111.205.214.416.318.627s.214.419.3.643a.075.075 0 01-.041.1.076.076 0 01-.083-.018c-.167-.174-.32-.36-.469-.549s-.273-.4-.4-.6l-.362-.624c-.11-.214-.226-.425-.331-.642a12.152 12.152 0 01-.913-2.736 25.179 25.179 0 01-.388-2.853 8.03 8.03 0 01.2-2.86.085.085 0 01.1-.06.086.086 0 01.074.082z" fill="#4368d1"/><path d="M52.611 52.126a3.979 3.979 0 01.3 1.145 4.005 4.005 0 00.367 1.108c.167.352.318.706.475 1.061l.233.537a2.228 2.228 0 01.2.571.082.082 0 01-.065.1.084.084 0 01-.057-.011 1.654 1.654 0 01-.444-.437 5.576 5.576 0 01-.345-.511 4.51 4.51 0 01-.474-1.135c-.107-.4-.177-.8-.3-1.19a2.27 2.27 0 01-.062-1.22.089.089 0 01.108-.063.09.09 0 01.064.045zM14.149 32.957a17.715 17.715 0 01-1.831 6.092 18.276 18.276 0 01-1.729 2.7c-.646.847-1.341 1.646-1.971 2.48a17.883 17.883 0 00-2.838 5.517 17.686 17.686 0 00-.669 3.048 24.893 24.893 0 00-.17 3.135.075.075 0 01-.075.075.075.075 0 01-.074-.062 12.567 12.567 0 01-.1-3.193 16.6 16.6 0 01.578-3.156 16 16 0 012.95-5.675c.668-.832 1.381-1.613 2.038-2.429a13.408 13.408 0 001.691-2.625 31.124 31.124 0 002.036-5.936.084.084 0 01.1-.06.084.084 0 01.064.089zM15.265 35.918a7.674 7.674 0 01-.174 3.924 16.949 16.949 0 01-1.521 3.642 18.144 18.144 0 01-2.324 3.176c-.437.488-.9.951-1.359 1.411a15.842 15.842 0 01-1.455 1.306.075.075 0 01-.105-.013.075.075 0 010-.091c.392-.525.824-1.009 1.254-1.493s.848-.976 1.26-1.472a30.4 30.4 0 002.3-3.085 11.793 11.793 0 001.554-3.489 14.7 14.7 0 00.408-3.8.084.084 0 01.082-.086.084.084 0 01.08.07zM18.349 40.005a15.5 15.5 0 01-2.439 5.494 40.98 40.98 0 00-2.985 5.16 14.545 14.545 0 00-.943 2.776 10.723 10.723 0 00-.214 1.437 8.64 8.64 0 00.041 1.446 9.075 9.075 0 00.291 1.418 7.054 7.054 0 00.565 1.332 6.584 6.584 0 00.85 1.169 6.6 6.6 0 001.12.938.075.075 0 01.02.1.075.075 0 01-.092.027 4.88 4.88 0 01-1.288-.83 5.926 5.926 0 01-.978-1.194 7.571 7.571 0 01-1.021-2.9 9.207 9.207 0 01-.062-1.545 10.2 10.2 0 01.213-1.527 13.357 13.357 0 01.435-1.469c.176-.478.383-.942.6-1.4.881-1.828 2.064-3.459 3.091-5.164a26.658 26.658 0 002.629-5.316.084.084 0 01.106-.054.084.084 0 01.061.102zM40.358 6.621a4.1 4.1 0 00-2.829-2.15 5.635 5.635 0 00-1.822-.145 5.959 5.959 0 00-1.779.451 10.445 10.445 0 00-3.1 2.081c-.923.857-1.782 1.8-2.647 2.728a41.348 41.348 0 01-5.542 5.307 17.708 17.708 0 01-3.326 1.966 10.8 10.8 0 01-3.728.959.075.075 0 01-.079-.07.075.075 0 01.06-.078 15.011 15.011 0 003.57-1.195 18.456 18.456 0 003.181-2.008 54.14 54.14 0 005.5-5.229c.889-.912 1.769-1.838 2.732-2.693a12.139 12.139 0 013.217-2.154 6.484 6.484 0 011.9-.5 5.786 5.786 0 011.965.181 4.664 4.664 0 011.758.891 3.588 3.588 0 011.122 1.6.084.084 0 01-.053.106.085.085 0 01-.1-.048z" fill="#4368d1"/><path d="M38.029 3.203a9.768 9.768 0 00-6.37-.452 6.9 6.9 0 00-1.5.6l-.361.187-.344.218a7.33 7.33 0 00-.667.468 16.7 16.7 0 00-2.367 2.259 53.7 53.7 0 01-4.465 4.947 15.789 15.789 0 01-2.757 1.928 25.684 25.684 0 01-3.007 1.442.074.074 0 01-.1-.041.074.074 0 01.031-.092c.95-.575 1.923-1.1 2.859-1.673a16.585 16.585 0 002.615-1.96c1.611-1.473 2.912-3.273 4.447-4.895a17.307 17.307 0 012.49-2.257 10.333 10.333 0 013.011-1.529 8.324 8.324 0 016.561.7.085.085 0 01.03.115.085.085 0 01-.106.035zM24.149 5.257c-.806.576-1.618 1.1-2.418 1.661a13.31 13.31 0 00-2.163 1.959 29.728 29.728 0 00-1.848 2.253c-.138.2-.286.393-.429.59l-.409.606c-.126.209-.261.412-.4.617s-.265.413-.417.612a.075.075 0 01-.106.014.075.075 0 01-.026-.081c.071-.24.16-.474.254-.706s.213-.451.329-.672l.367-.653c.132-.212.259-.428.4-.637a13.823 13.823 0 011.924-2.3c.722-.693 1.495-1.322 2.278-1.939a9 9 0 012.587-1.476.084.084 0 01.108.052.085.085 0 01-.031.1z" fill="#4368d1"/><path d="M25.854 21.414a1.9 1.9 0 00-1.088 1.451c-.026.777 1.173 1.892 1.96 2a2.972 2.972 0 002.316-1.192c.154-.471-.934-3.27-3.188-2.259z" fill="#4368d1" opacity=".7"/><path d="M25.884 21.457a6.307 6.307 0 00-.689.868 1.239 1.239 0 00-.177.439.764.764 0 00.076.42 3.165 3.165 0 00.583.864 4.408 4.408 0 00.84.718.044.044 0 01.016.061.047.047 0 01-.044.021 2.3 2.3 0 01-1.086-.5 2.577 2.577 0 01-.767-.972 1.192 1.192 0 01-.085-.7 1.431 1.431 0 01.311-.59 2.668 2.668 0 01.963-.713.053.053 0 01.07.027.053.053 0 01-.009.057zM27.835 24.619c-.2-.018.737-.778 1.035-.694.162.046-.539.738-1.035.694z" fill="#3e61af"/><path d="M23.428 28.407a3.643 3.643 0 013.292-1.425 5.941 5.941 0 013.456 2.213s-2.869 1.566-6.748-.788z" fill="#496fba"/><path d="M23.428 28.407a3.461 3.461 0 002.827 3.067c2.66.525 3.921-2.279 3.921-2.279a12.65 12.65 0 01-3.522.159 14.84 14.84 0 01-3.226-.947z" fill="#38579e"/><path d="M21.359 25.675a5.54 5.54 0 001.014 1.476 5.8 5.8 0 001.4 1.111 6.657 6.657 0 001.651.681 7.558 7.558 0 00.879.194c.3.052.593.061.89.09a8.683 8.683 0 003.517-.69 10.88 10.88 0 001.636-.827 12.158 12.158 0 001.512-1.05l.009-.007a.169.169 0 01.238.024.17.17 0 01-.011.225 10.708 10.708 0 01-3.136 2.2 8.443 8.443 0 01-3.79.83 8.355 8.355 0 01-1.935-.327 6.582 6.582 0 01-1.788-.812 5.759 5.759 0 01-2.409-3.016.169.169 0 01.108-.213.169.169 0 01.205.09z" fill="#4368d1"/><g fill="#4368d1"><path d="M37.555 19.202c-.017-.073-.4.424-1.032.566a1.968 1.968 0 01-.957-.108 4.009 4.009 0 00-1.032-.123 2.8 2.8 0 00-1.265.331c-.054.029-.1.064-.155.1-.033.01-.056.021-.053.031a2.076 2.076 0 00-.721.773.18.18 0 000 .171.179.179 0 00.244.067l.029-.016a4.38 4.38 0 01.953-.411 3.932 3.932 0 01.984-.144h.061a1.7 1.7 0 00-1.343 1.539 1.629 1.629 0 001.236 1.923c.8.1 1.471-.609 1.674-1.555a3.212 3.212 0 00.061-.967 5.374 5.374 0 00-.048-.35 2.189 2.189 0 00-.063-.218 1.98 1.98 0 01.377.206.184.184 0 00.1.061.329.329 0 00.079-.017h.009a1.858 1.858 0 00.862-1.859zM22.483 18.201a4.018 4.018 0 00-1.023-.181s-.492-.033-.992-.128c-.311-.059-.95-.792-.984-.724a2.018 2.018 0 00.607 1.83h.006a.33.33 0 00.07.039 4.179 4.179 0 011.095-.13 3.444 3.444 0 01.8.1 1.658 1.658 0 00-1.51 1.551 1.629 1.629 0 001.235 1.922c.8.1 1.471-.609 1.675-1.555a3.212 3.212 0 00.061-.967c-.006-.061-.018-.13-.027-.2a4.882 4.882 0 01.4.374l.023.024a.179.179 0 00.253.007.182.182 0 00.053-.164 2.176 2.176 0 00-.628-1.131 2.8 2.8 0 00-1.114-.667zM36.392 23.987a1.105 1.105 0 00-.376-.217.078.078 0 00-.054 0 .079.079 0 00-.039.105 1.111 1.111 0 00.275.337 1.168 1.168 0 00.376.217.08.08 0 00.056 0 .079.079 0 00.038-.105 1.167 1.167 0 00-.276-.337zM34.986 24.161a.076.076 0 00-.05-.045.076.076 0 00-.094.053 2 2 0 00-.045.587 2.113 2.113 0 00.112.578.077.077 0 00.051.045.076.076 0 00.093-.054 2.128 2.128 0 00.045-.587 2.01 2.01 0 00-.112-.577zM33.787 24.011a1.575 1.575 0 00-.329.4 1.641 1.641 0 00-.193.48.075.075 0 00.016.061.077.077 0 00.108.012 1.64 1.64 0 00.329-.4 1.557 1.557 0 00.194-.48.078.078 0 00-.015-.06.077.077 0 00-.11-.013zM21.628 22.891a.08.08 0 00-.109.027 1.112 1.112 0 00-.123.417 1.168 1.168 0 00.034.434.079.079 0 00.035.043.079.079 0 00.108-.028 1.165 1.165 0 00.123-.417 1.119 1.119 0 00-.034-.434.08.08 0 00-.034-.042zM20.671 22.188a2.017 2.017 0 00-.51.3 2.116 2.116 0 00-.413.419.076.076 0 00-.009.067.076.076 0 00.1.046 2.125 2.125 0 00.51-.3 2.016 2.016 0 00.413-.419.076.076 0 00.008-.066.076.076 0 00-.099-.047zM20.255 21.326a.077.077 0 00-.05-.1 1.557 1.557 0 00-.515-.045 1.636 1.636 0 00-.505.111.076.076 0 00-.042.048.077.077 0 00.051.1 1.638 1.638 0 00.516.045 1.56 1.56 0 00.505-.111.078.078 0 00.04-.048z"/></g><g><path d="M33.865 14.06c-.523.2-.957.875-.6 1.252.551.585 2.681.991 4.3 1.631.994.392 1.661 1.652 1.687 1.3a4.188 4.188 0 00-.711-2.6c-.882-.845-3.188-2.141-4.676-1.583z" fill="#4368d1"/><path d="M35.52 14.134a1.3 1.3 0 00-.607.17 8.132 8.132 0 00-.527.287 4.781 4.781 0 00-.5.343c-.073.057-.148.114-.218.175a1.039 1.039 0 00-.176.257.107.107 0 00.119.155 1.433 1.433 0 00.274-.073c.084-.042.164-.094.246-.138.171-.092.342-.185.514-.276s.337-.171.509-.248a1.583 1.583 0 00.507-.311.2.2 0 00-.141-.341zM36.569 14.786c-.168-.116-.41.02-.572.09a2.324 2.324 0 00-.426.248 3.544 3.544 0 00-.726.688.094.094 0 00.133.133 3.3 3.3 0 01.779-.5c.13-.06.264-.109.4-.159.155-.058.4-.082.479-.249a.187.187 0 00-.067-.251zM38.021 15.219a.982.982 0 00-.6.1 4.266 4.266 0 00-.539.239 3.057 3.057 0 00-.865.728c-.083.1.029.28.148.192a5.437 5.437 0 01.928-.528 3.337 3.337 0 01.468-.18 1.458 1.458 0 00.548-.205.206.206 0 00-.088-.346zM38.668 16.038c-.114-.077-.281.013-.393.056a2.888 2.888 0 00-.363.15q-.343.186-.671.4a.1.1 0 00.1.172q.346-.156.7-.287c.122-.045.239-.108.358-.161s.275-.09.308-.221a.1.1 0 00-.039-.109zM39.002 16.696a.519.519 0 00-.221-.022.331.331 0 00-.129.024l-.091.037-.183.075a1.294 1.294 0 00-.208.124.145.145 0 00-.059.18.147.147 0 00.17.083 1.266 1.266 0 00.207-.039l.185-.068.092-.034a.368.368 0 00.083-.037.581.581 0 00.056-.046.5.5 0 00.143-.164.1.1 0 00-.045-.113zM39.146 17.398l-.038-.011a.209.209 0 00-.109-.006.537.537 0 00-.07.028.407.407 0 00-.039.02.544.544 0 00-.153.126.132.132 0 00-.036.086.125.125 0 00.036.086.122.122 0 00.086.035h.033a.119.119 0 00.054-.031l-.021.016a.461.461 0 01.08-.046.462.462 0 01.1-.026h-.024a.193.193 0 00.074-.02l.021-.013.039-.021.025-.019.019-.024a.119.119 0 00.015-.078.124.124 0 00-.092-.102z" fill="#4e7add"/></g></svg>
