<svg xmlns="http://www.w3.org/2000/svg" width="24.608" height="24.608" viewBox="0 0 24.608 24.608"><g transform="translate(0)"><path d="M1638.461,118.445v1.669c.43.263,3.87,2.03,9.843,2.03s9.413-1.766,9.843-2.028v-1.671c0-2.111-4.682-3.754-5.02-3.879-1.046,1.881-2.6,3.276-4.823,3.276s-3.778-1.394-4.823-3.273C1643.149,114.692,1638.461,116.329,1638.461,118.445Zm3.076-12.073a6.78,6.78,0,0,1,13.535,0,20.185,20.185,0,0,1-.966,5.928c2.461.942,6.5,2.466,6.5,6.145v2.469c0,1.36-5.309,3.694-12.3,3.694s-12.3-2.339-12.3-3.694v-2.469c0-3.691,4.042-5.2,6.5-6.142A20.209,20.209,0,0,1,1641.537,106.372Zm6.768,9.008c2.424,0,4.306-4.451,4.306-9.008a4.326,4.326,0,0,0-8.613,0C1644,110.929,1645.88,115.38,1648.3,115.38Z" transform="translate(-1636 -100)" fill="#324bb8" fill-rule="evenodd"/></g></svg>