<svg xmlns="http://www.w3.org/2000/svg" width="19.025" height="20.752" viewBox="0 0 19.025 20.752"><g transform="translate(-70.096 -101.44)"><path d="M88.357,111.83c0,2.525-.037,5.051.019,7.573a2.065,2.065,0,0,1-2.062,2.045c-4.475-.044-8.952-.032-13.428-.009a1.957,1.957,0,0,1-2.045-2q-.018-7.682,0-15.361a1.9,1.9,0,0,1,1.933-1.889q6.823,0,13.643,0a1.84,1.84,0,0,1,1.94,1.965Q88.362,107.991,88.357,111.83Z" transform="translate(0)" fill="none" stroke="#d2d2d2" stroke-miterlimit="10" stroke-width="1.489"/><path d="M78.754,107.916c-1.5,0-3.006,0-4.508,0a1.339,1.339,0,0,1-1.158-.4c-.157-.234.061-.4.374-.533a2.075,2.075,0,0,1,.806-.123q4.59-.008,9.179,0c.85,0,1.264.193,1.272.518.007.27-.257.434-.77.488a11.369,11.369,0,0,1-1.17.053C81.439,107.913,80.1,107.916,78.754,107.916Z" transform="translate(0.733 1.552)" fill="#d2d2d2"/><path d="M78.754,106.126q-2.254,0-4.508,0a1.343,1.343,0,0,1-1.158-.4c-.157-.234.061-.4.374-.534a2.1,2.1,0,0,1,.806-.121q4.59-.008,9.179,0c.85,0,1.264.193,1.272.518.007.269-.257.434-.77.486a11,11,0,0,1-1.17.053C81.439,106.123,80.1,106.126,78.754,106.126Z" transform="translate(0.733 0.957)" fill="#d2d2d2"/></g></svg>