<svg xmlns="http://www.w3.org/2000/svg" width="16.795" height="15.575" viewBox="0 0 16.795 15.575"><g transform="translate(0 -18.592)"><g transform="translate(0 18.592)"><g transform="translate(0 0)"><path d="M16.693,25.185a.328.328,0,0,0-.111-.192,2.068,2.068,0,0,1-.709-1.373l-.01-.053a.328.328,0,0,0-.277-.266,1.1,1.1,0,0,0-.152-.01,1.507,1.507,0,0,0-1.031.425.328.328,0,0,0-.087.183c-.023.176-.036.338-.046.48-.04.536-.076.593-.239.645a.328.328,0,0,0-.214.215,7.578,7.578,0,0,1-.605,1.417c-.122-.233-.257-.443-.382-.638a1.855,1.855,0,0,1-.467-1.321,4.428,4.428,0,0,0-.405-3.389,2.158,2.158,0,0,0-1.244-.819,1.446,1.446,0,0,1,.972-1.252.328.328,0,0,0-.17-.634,2.1,2.1,0,0,0-1.452,1.8,2.176,2.176,0,0,0-1.39.471,4.41,4.41,0,0,0-1.284,3.155c-.041.458-.338.725-.748,1.1a4.752,4.752,0,0,0-1.007,1.149,4.063,4.063,0,0,0-1.188-.285,1.439,1.439,0,0,1,.965-1.207.328.328,0,0,0-.17-.634,1.751,1.751,0,0,0-.493.223,1.939,1.939,0,0,0-2.4-1.489.328.328,0,0,0-.232.232,1.947,1.947,0,0,0,.5,1.873,1.925,1.925,0,0,0,1.259.564,2.458,2.458,0,0,0-.09.433,4.1,4.1,0,0,0,.31,8.179,4.056,4.056,0,0,0,2.323-.723c.108.047.216.093.325.136a8.07,8.07,0,0,0,2.965.587,6.6,6.6,0,0,0,4.233-1.49,8.317,8.317,0,0,0,2.655-4.36A8.516,8.516,0,0,0,16.693,25.185Zm-9.612.431a2.309,2.309,0,0,0,.962-1.524,3.828,3.828,0,0,1,1.04-2.7,1.58,1.58,0,0,1,1.243-.309,1.557,1.557,0,0,1,1.1.614,3.849,3.849,0,0,1,.289,2.887,2.426,2.426,0,0,0,.561,1.791,5.026,5.026,0,0,1,.518.953,7.868,7.868,0,0,1-4.629,3.187,4.095,4.095,0,0,0-1.944-3.94A4.26,4.26,0,0,1,7.081,25.616Zm-4-1.09a1.289,1.289,0,0,1-.368-1.044,1.3,1.3,0,0,1,.137-.007,1.275,1.275,0,0,1,.907.376A1.289,1.289,0,0,1,4.125,24.9a1.3,1.3,0,0,1-.137.007h0A1.275,1.275,0,0,1,3.081,24.527ZM4.1,33.511a3.436,3.436,0,1,1,3.393-2.876q-.317.041-.637.052A2.816,2.816,0,0,0,6.709,29a.328.328,0,1,0-.607.249,2.166,2.166,0,0,1,.076,1.428,7.212,7.212,0,0,1-1.4-.232.328.328,0,0,0-.275.049,1.882,1.882,0,0,0-.76.967.328.328,0,0,0,.1.359A11.086,11.086,0,0,0,5.72,33.1,3.408,3.408,0,0,1,4.1,33.511Zm11.867-5.364c-.9,3.359-3.238,5.364-6.254,5.364A8.559,8.559,0,0,1,4.45,31.473a1.168,1.168,0,0,1,.31-.355,7.787,7.787,0,0,0,1.864.229,7.92,7.92,0,0,0,4.909-1.735,8.739,8.739,0,0,0,1.889-2.043l.017-.026a8.369,8.369,0,0,0,.956-1.961c.46-.231.495-.7.529-1.154.008-.1.016-.21.028-.323a.888.888,0,0,1,.319-.139,2.571,2.571,0,0,0,.795,1.447A7.935,7.935,0,0,1,15.963,28.147Z" transform="translate(0 -18.592)" fill="#fff"/></g></g><g transform="translate(10.124 21.731)"><path d="M309.087,114.316a.328.328,0,0,0-.254.605c.239.1.37.82.161,2a.328.328,0,1,0,.646.115C309.828,115.981,309.884,114.65,309.087,114.316Z" transform="translate(-308.632 -114.29)" fill="#fff"/></g><g transform="translate(12.152 31.014)"><g transform="translate(0 0)"><path d="M371.057,397.426a.328.328,0,0,0-.46-.065h0a.328.328,0,0,0,.388.529l.007-.006A.328.328,0,0,0,371.057,397.426Z" transform="translate(-370.462 -397.295)" fill="#fff"/></g></g><g transform="translate(9.129 31.497)"><g transform="translate(0 0)"><path d="M281.166,412.193a.328.328,0,0,0-.441-.143,4.734,4.734,0,0,1-2.084.551.328.328,0,0,0-.025.656h.052a5.422,5.422,0,0,0,2.356-.623A.328.328,0,0,0,281.166,412.193Z" transform="translate(-278.3 -412.015)" fill="#fff"/></g></g><g transform="translate(5.533 27.978)"><g transform="translate(0 0)"><path d="M169.231,304.85l-.011-.011a.328.328,0,1,0-.463.465l.007.007a.328.328,0,1,0,.466-.461Z" transform="translate(-168.661 -304.744)" fill="#fff"/></g></g></g></svg>