<svg xmlns="http://www.w3.org/2000/svg" width="11.207" height="17.107" viewBox="0 0 11.207 17.107"><g transform="translate(-88.29)"><path d="M99.176,9.684A5.277,5.277,0,0,0,98.22,8a6.947,6.947,0,0,0-1.012-.956c-.366-.288-.751-.547-1.113-.787l-.168-.111a12.183,12.183,0,0,1-1.919-1.453,2.458,2.458,0,0,1-.405-.52,1.489,1.489,0,0,1-.1-.2,3.863,3.863,0,0,0,1.228-.281,2.475,2.475,0,0,0,.629-.367,1.316,1.316,0,0,0,.423-.581,1.187,1.187,0,0,0,.064-.388,1.539,1.539,0,0,0-.2-.73,2.9,2.9,0,0,0-.758-.867A3.33,3.33,0,0,0,93.93.216L93.876.2a3.573,3.573,0,0,0-.857-.186C92.937,0,92.853,0,92.771,0h0a2.747,2.747,0,0,0-1.093.227,3.04,3.04,0,0,0-.9.6,3.6,3.6,0,0,0-1.026,1.9,4.022,4.022,0,0,0-.07.751,4.61,4.61,0,0,0,.24,1.444,5.4,5.4,0,0,0,.644,1.309,8.234,8.234,0,0,0,2.628,2.381l.059.036a11.322,11.322,0,0,1,2.636,1.972,1.409,1.409,0,0,1,.361.964,2.251,2.251,0,0,1-.308,1.076,2.941,2.941,0,0,1-.779.9.334.334,0,0,0,.4.534c.085-.064.167-.133.247-.205l1.447,1.248a5.153,5.153,0,0,1-3.362,1.3h-.008a4.6,4.6,0,0,1-.643-.045,4.893,4.893,0,0,1-2.37-1.073,5.6,5.6,0,0,1-.9-.924l1.2-.946a2.949,2.949,0,0,0,.209.253,3.041,3.041,0,0,0,.992.7.334.334,0,0,0,.273-.61,2.377,2.377,0,0,1-.776-.549,2.488,2.488,0,0,1-.642-1.69,2.53,2.53,0,0,1,.227-.975,2.1,2.1,0,0,0,.192-.769,1.038,1.038,0,0,0-.126-.5,1.371,1.371,0,0,0-.4-.439,1.351,1.351,0,0,0-.805-.292h-.005a1.292,1.292,0,0,0-.721.235,2.546,2.546,0,0,0-.733.825,4.235,4.235,0,0,0-.408.926,3.908,3.908,0,0,0-.159,1.114,4.434,4.434,0,0,0,.1.915,4.975,4.975,0,0,0,.273.876,5.81,5.81,0,0,0,.745,1.289,6.287,6.287,0,0,0,1.047,1.078,6,6,0,0,0,1.272.791,5.2,5.2,0,0,0,1.424.423,5.28,5.28,0,0,0,.736.051,5.639,5.639,0,0,0,1.468-.2,5.854,5.854,0,0,0,1.369-.565,5.541,5.541,0,0,0,2.088-2.068,5.478,5.478,0,0,0,.687-2.686,5.763,5.763,0,0,0-.321-1.9Zm-9.58.054a1.594,1.594,0,0,1,.367-.365.628.628,0,0,1,.349-.121.7.7,0,0,1,.41.16.716.716,0,0,1,.209.222.361.361,0,0,1,.045.182,1.827,1.827,0,0,1-.18.611l0,.009a3.635,3.635,0,0,0-.168.494l-1.533-.174A3.469,3.469,0,0,1,89.6,9.738Zm-.638,1.945c0-.09,0-.18.011-.269l1.589.18a3.251,3.251,0,0,0,.207,1.112c.021.055.043.108.066.161l-1.238.977a4.921,4.921,0,0,1-.315-.625,4.048,4.048,0,0,1-.32-1.536Zm9.863.176-1.906-.216c0-.017,0-.034,0-.051a2.122,2.122,0,0,0-.126-.732,2.051,2.051,0,0,0-.185-.381l1.663-1.211a5.068,5.068,0,0,1,.561,2.321C98.829,11.679,98.826,11.77,98.821,11.86Zm-7.7-5.993a4.343,4.343,0,0,1-.771-2.381,3.336,3.336,0,0,1,.058-.626,2.945,2.945,0,0,1,.832-1.547A2.2,2.2,0,0,1,92.771.668a2.958,2.958,0,0,1,.944.18,2.818,2.818,0,0,1,1,.641,1.982,1.982,0,0,1,.35.453.886.886,0,0,1,.12.412.52.52,0,0,1-.028.172.662.662,0,0,1-.216.282,2.172,2.172,0,0,1-.744.366,3.1,3.1,0,0,1-.848.133h0a1.583,1.583,0,0,1-.191-.01.336.336,0,0,0-.258.078.33.33,0,0,0-.116.243c0,.013,0,.025,0,.038a1.721,1.721,0,0,0,.244.845,2.913,2.913,0,0,0,.336.473L92.2,7.079a6.234,6.234,0,0,1-1.082-1.212c-.5-.741.286.427,0,0ZM93.54,8.05q-.438-.267-.811-.546L93.851,5.46a14.958,14.958,0,0,0,1.657,1.211l.1.066L94.248,8.486c-.185-.116-.369-.228-.55-.34l-.157-.1Zm1.56,1c-.1-.069-.193-.136-.29-.2L96.165,7.11a7.722,7.722,0,0,1,1.546,1.324q.108.126.206.262L96.178,9.963A8.227,8.227,0,0,0,95.1,9.054Zm2.625,5.609L96.259,13.4a3.635,3.635,0,0,0,.264-.4,3.22,3.22,0,0,0,.287-.679l0-.012,1.93.219a4.642,4.642,0,0,1-.514,1.423,4.475,4.475,0,0,1-.5.717Z" transform="translate(0 0)" fill="#fff"/><circle cx="0.328" cy="0.328" r="0.328" transform="translate(93.057 1.372)" fill="#fff"/></g></svg>